<svg aria-hidden="true" style="width:0;height:0;position:absolute;overflow:hidden" xmlns="http://www.w3.org/2000/svg"><defs><symbol id="search" viewBox="0 0 32 32"><path d="M12.36 4.509A8.53 8.53 0 0 0 5.549 8.92a8.554 8.554 0 0 0-.789 6.091 8.464 8.464 0 0 0 1.616 3.285c.283.36 1.027 1.099 1.384 1.373 1.272.984 2.608 1.541 4.227 1.76.424.059 1.539.067 1.947.016 1.141-.144 2.149-.456 3.067-.949l.267-.144.4.395.373-.243c.485-.317 1.011-.712 1.288-.971.288-.269.677-.757 1.024-1.283.155-.235.307-.467.336-.52l.059-.096-.379-.363.2-.389c.6-1.165.901-2.325.944-3.643a8.51 8.51 0 0 0-3.565-7.179 8.543 8.543 0 0 0-5.587-1.552zm1.493 2.603c1.747.245 3.296 1.269 4.24 2.808.413.672.699 1.504.816 2.373.016.125.029.437.029.693 0 .699-.083 1.213-.299 1.867a5.737 5.737 0 0 1-1.36 2.251 5.92 5.92 0 0 1-3.453 1.765 7.338 7.338 0 0 1-1.616.003 5.92 5.92 0 0 1-3.456-1.755 5.582 5.582 0 0 1-1.077-1.531c-.416-.859-.595-1.635-.595-2.6s.179-1.741.595-2.6a5.9 5.9 0 0 1 2.736-2.733 5.906 5.906 0 0 1 3.44-.541zm7.334 11.347c-.275.477-.683.984-1.24 1.541-.533.533-1.045.944-1.525 1.229-.085.048-.155.096-.155.104s1.157 1.171 2.573 2.587l2.571 2.571.312-.331a63.837 63.837 0 0 1 2.211-2.208c.309-.285.565-.525.573-.531.013-.011-5.152-5.181-5.176-5.181-.011 0-.075.099-.144.219zm5.714 5.936c-.547.744-1.653 1.867-2.44 2.469-.288.219-.288.219.053.309a2.179 2.179 0 0 0 2.637-1.416c.072-.213.085-.299.096-.579.008-.2 0-.392-.021-.493-.037-.195-.133-.499-.157-.499a1.703 1.703 0 0 0-.168.208z"/></symbol></defs></svg>