<svg aria-hidden="true" style="position: absolute; width: 0; height: 0; overflow: hidden;" version="1.1"
    xmlns="http://www.w3.org/2000/svg" xmlns:xlink="http://www.w3.org/1999/xlink">
    <defs>
        <symbol id="search" viewBox="0 0 32 32">
            <path
                d="M12.36 4.509c-2.872 0.229-5.421 1.88-6.811 4.411-1.003 1.827-1.291 4.045-0.789 6.091 0.299 1.211 0.827 2.288 1.616 3.285 0.283 0.36 1.027 1.099 1.384 1.373 1.272 0.984 2.608 1.541 4.227 1.76 0.424 0.059 1.539 0.067 1.947 0.016 1.141-0.144 2.149-0.456 3.067-0.949l0.267-0.144 0.4 0.395 0.373-0.243c0.485-0.317 1.011-0.712 1.288-0.971 0.288-0.269 0.677-0.757 1.024-1.283 0.155-0.235 0.307-0.467 0.336-0.52l0.059-0.096-0.379-0.363 0.2-0.389c0.6-1.165 0.901-2.325 0.944-3.643 0.093-2.821-1.253-5.528-3.565-7.179-1.608-1.149-3.629-1.709-5.587-1.552zM13.853 7.112c1.747 0.245 3.296 1.269 4.24 2.808 0.413 0.672 0.699 1.504 0.816 2.373 0.016 0.125 0.029 0.437 0.029 0.693 0 0.699-0.083 1.213-0.299 1.867-0.285 0.867-0.723 1.589-1.36 2.251-0.933 0.965-2.109 1.568-3.453 1.765-0.424 0.061-1.195 0.061-1.616 0.003-1.347-0.197-2.512-0.787-3.456-1.755-0.459-0.469-0.787-0.936-1.077-1.531-0.416-0.859-0.595-1.635-0.595-2.6s0.179-1.741 0.595-2.6c0.584-1.197 1.539-2.152 2.736-2.733 1.069-0.523 2.259-0.709 3.44-0.541zM21.187 18.459c-0.275 0.477-0.683 0.984-1.24 1.541-0.533 0.533-1.045 0.944-1.525 1.229-0.085 0.048-0.155 0.096-0.155 0.104s1.157 1.171 2.573 2.587l2.571 2.571 0.312-0.331c0.587-0.621 1.648-1.683 2.211-2.208 0.309-0.285 0.565-0.525 0.573-0.531 0.013-0.011-5.152-5.181-5.176-5.181-0.011 0-0.075 0.099-0.144 0.219zM26.901 24.395c-0.547 0.744-1.653 1.867-2.44 2.469-0.288 0.219-0.288 0.219 0.053 0.309 0.781 0.211 1.616-0.027 2.165-0.619 0.221-0.24 0.363-0.477 0.472-0.797 0.072-0.213 0.085-0.299 0.096-0.579 0.008-0.2 0-0.392-0.021-0.493-0.037-0.195-0.133-0.499-0.157-0.499-0.008 0.003-0.085 0.093-0.168 0.208z">
            </path>
        </symbol>
    </defs>
</svg>